<svg width="100" height="100" viewBox="0 0 100 100" fill="none" xmlns="http://www.w3.org/2000/svg">
<path d="M56.5132 76.25C56.5132 72.0945 55.6334 67.9796 53.9241 64.1404C52.2147 60.3012 49.7093 56.8128 46.5509 53.8744C43.3925 50.936 39.6429 48.6052 35.5163 47.0149C31.3896 45.4247 26.9667 44.6062 22.5 44.6062V76.25H56.5132Z" fill="#FFF3E0"/>
<path d="M55.8228 27.0703L34.4312 23.7932C33.4385 23.6362 32.4264 23.9109 31.6673 24.5585C30.9081 25.2257 30.4604 26.1872 30.4604 27.188V68.5343C30.4604 69.6135 31.3364 70.4966 32.4069 70.4966H38.7329V60.1944C38.7329 58.2909 40.2511 56.7603 42.1392 56.7603H47.0055C48.8935 56.7603 50.4118 58.2909 50.4118 60.1944V70.4966H58.6842V30.4651C58.6842 28.7775 57.4773 27.345 55.8228 27.0703ZM41.166 52.345H38.2463C37.4405 52.345 36.7864 51.6857 36.7864 50.8733C36.7864 50.0609 37.4405 49.4016 38.2463 49.4016H41.166C41.9719 49.4016 42.6259 50.0609 42.6259 50.8733C42.6259 51.6857 41.9719 52.345 41.166 52.345ZM41.166 46.4581H38.2463C37.4405 46.4581 36.7864 45.7987 36.7864 44.9863C36.7864 44.1739 37.4405 43.5146 38.2463 43.5146H41.166C41.9719 43.5146 42.6259 44.1739 42.6259 44.9863C42.6259 45.7987 41.9719 46.4581 41.166 46.4581ZM41.166 40.5711H38.2463C37.4405 40.5711 36.7864 39.9117 36.7864 39.0993C36.7864 38.2869 37.4405 37.6276 38.2463 37.6276H41.166C41.9719 37.6276 42.6259 38.2869 42.6259 39.0993C42.6259 39.9117 41.9719 40.5711 41.166 40.5711ZM41.166 34.6841H38.2463C37.4405 34.6841 36.7864 34.0248 36.7864 33.2123C36.7864 32.3999 37.4405 31.7406 38.2463 31.7406H41.166C41.9719 31.7406 42.6259 32.3999 42.6259 33.2123C42.6259 34.0248 41.9719 34.6841 41.166 34.6841ZM50.8983 52.345H47.9786C47.1728 52.345 46.5188 51.6857 46.5188 50.8733C46.5188 50.0609 47.1728 49.4016 47.9786 49.4016H50.8983C51.7041 49.4016 52.3582 50.0609 52.3582 50.8733C52.3582 51.6857 51.7041 52.345 50.8983 52.345ZM50.8983 46.4581H47.9786C47.1728 46.4581 46.5188 45.7987 46.5188 44.9863C46.5188 44.1739 47.1728 43.5146 47.9786 43.5146H50.8983C51.7041 43.5146 52.3582 44.1739 52.3582 44.9863C52.3582 45.7987 51.7041 46.4581 50.8983 46.4581ZM50.8983 40.5711H47.9786C47.1728 40.5711 46.5188 39.9117 46.5188 39.0993C46.5188 38.2869 47.1728 37.6276 47.9786 37.6276H50.8983C51.7041 37.6276 52.3582 38.2869 52.3582 39.0993C52.3582 39.9117 51.7041 40.5711 50.8983 40.5711ZM50.8983 34.6841H47.9786C47.1728 34.6841 46.5188 34.0248 46.5188 33.2123C46.5188 32.3999 47.1728 31.7406 47.9786 31.7406H50.8983C51.7041 31.7406 52.3582 32.3999 52.3582 33.2123C52.3582 34.0248 51.7041 34.6841 50.8983 34.6841Z" fill="#FD6120"/>
<path d="M61.5791 42.1681C61.5791 41.3091 62.4862 40.753 63.2518 41.1426L76.2427 47.7551C77.0143 48.1478 77.5002 48.9403 77.5002 49.8061V69.346C77.5002 69.9815 76.985 70.4966 76.3495 70.4966H62.7298C62.0943 70.4966 61.5791 69.9815 61.5791 69.346V42.1681Z" fill="#FEB52B"/>
<path d="M67.3686 39.5719C70.566 39.5719 73.158 36.996 73.158 33.8185C73.158 30.641 70.566 28.0651 67.3686 28.0651C64.1711 28.0651 61.5791 30.641 61.5791 33.8185C61.5791 36.996 64.1711 39.5719 67.3686 39.5719Z" fill="#FD9126"/>
<path d="M47.4016 58.2706H41.7425C41.107 58.2706 40.5918 58.7858 40.5918 59.4213V69.3459C40.5918 69.9815 41.107 70.4966 41.7425 70.4966H47.4016C48.0371 70.4966 48.5523 69.9815 48.5523 69.3459V59.4213C48.5523 58.7858 48.0371 58.2706 47.4016 58.2706Z" fill="#FDA929"/>
</svg>
