<svg width="100" height="100" viewBox="0 0 100 100" fill="none" xmlns="http://www.w3.org/2000/svg">
<path d="M58.125 60C61.957 60 65.703 58.8637 68.8892 56.7347C72.0754 54.6058 74.5587 51.5798 76.0252 48.0395C77.4916 44.4992 77.8753 40.6035 77.1277 36.8451C76.3801 33.0867 74.5348 29.6344 71.8252 26.9248C69.1156 24.2152 65.6633 22.3699 61.9049 21.6223C58.1465 20.8747 54.2508 21.2584 50.7105 22.7248C47.1702 24.1913 44.1442 26.6746 42.0153 29.8608C39.8863 33.047 38.75 36.793 38.75 40.625H58.125V60Z" fill="#FFEBEE"/>
<path d="M64.4056 30H32.5V37.5H70V36.5817C70 32.9526 67.4904 30 64.4056 30Z" fill="#F89B1C"/>
<path d="M30.6249 31C30.6249 30.4477 30.1755 29.9937 29.6274 30.0615C28.9031 30.1511 28.1927 30.338 27.5156 30.6185C26.5298 31.0268 25.6341 31.6253 24.8797 32.3798C24.1252 33.1342 23.5267 34.0299 23.1184 35.0157C22.8379 35.6928 22.651 36.4032 22.5614 37.1275C22.4936 37.6756 22.9476 38.125 23.4999 38.125H29.6249C30.1772 38.125 30.6249 37.6773 30.6249 37.125V31Z" fill="#FD551F"/>
<path d="M22.5 73.2349C22.5 76.1674 24.886 78.5533 27.8196 78.5533H64.6804C67.614 78.5533 70 76.1674 70 73.2349V39.8979H22.5V73.2349ZM50.4962 73.6614H42.0038C41.2355 73.6614 40.6122 73.0387 40.6122 72.2697C40.6122 71.5014 41.2355 70.8781 42.0038 70.8781H50.4962C51.2645 70.8781 51.8878 71.5014 51.8878 72.2697C51.8878 73.0387 51.2645 73.6614 50.4962 73.6614ZM53.2794 69.4866H39.2206C38.4523 69.4866 37.829 68.864 37.829 68.095C37.829 67.3267 38.4523 66.7034 39.2206 66.7034H53.2794C54.0477 66.7034 54.671 67.3267 54.671 68.095C54.671 68.864 54.0477 69.4866 53.2794 69.4866ZM37.1999 61.4389L41.1177 57.521C38.9245 54.3927 39.222 50.0378 42.0147 47.2451C45.1429 44.1166 50.2331 44.1166 53.3617 47.2451C56.4902 50.3737 56.4902 55.4639 53.3617 58.5921C51.7976 60.1562 49.7428 60.9386 47.6884 60.9386C46.0746 60.9386 44.4619 60.4539 43.0859 59.4892L39.1681 63.4069C38.8963 63.6787 38.54 63.8147 38.1841 63.8147C37.8279 63.8147 37.4717 63.6787 37.1999 63.4069C36.6563 62.8633 36.6563 61.9824 37.1999 61.4389Z" fill="#D23258"/>
<path d="M51.3936 56.6242C53.4368 54.5807 53.4368 51.2561 51.3936 49.2129C50.372 48.1913 49.03 47.6807 47.6881 47.6807C46.3461 47.6807 45.0042 48.1913 43.9826 49.2129C41.9394 51.2561 41.9394 54.5807 43.9826 56.6242C46.0258 58.6671 49.3504 58.6671 51.3936 56.6242Z" fill="#F89B1C"/>
</svg>
