<svg width="100" height="100" viewBox="0 0 100 100" fill="none" xmlns="http://www.w3.org/2000/svg">
<path d="M80.8228 53.5408H18.6085C17.9963 53.5408 17.5 54.0371 17.5 54.6493V75.9878C17.5 76.6 17.9963 77.0963 18.6085 77.0963H80.8228C81.435 77.0963 81.9313 76.6 81.9313 75.9878V54.6493C81.9313 54.0371 81.435 53.5408 80.8228 53.5408Z" fill="#E0F5FF"/>
<path d="M49.7155 23.75C45.0818 23.75 41.3125 27.6127 41.3125 32.2464C41.3125 36.8801 45.0818 40.6494 49.7155 40.6494C54.3492 40.6494 58.1186 36.8801 58.1186 32.2464C58.1186 27.6127 54.3492 23.75 49.7155 23.75Z" fill="#1797C5"/>
<path d="M52.5162 40.6494H49.7152H46.9142C44.9387 40.6494 43.0298 41.16 41.2944 42.0287C44.2419 42.824 47.0172 43.9695 49.7152 45.518C52.4133 43.9695 55.1885 42.824 58.136 42.0287C56.4006 41.16 54.4917 40.6494 52.5162 40.6494Z" fill="#1178B4"/>
<path d="M70.8161 49.0524C69.2691 49.0524 68.0151 50.3064 68.0151 51.8534V57.4555C68.0151 59.0023 69.2691 60.2565 70.8161 60.2565C72.3631 60.2565 73.6172 59.0023 73.6172 57.4555V51.8534C73.6172 50.3064 72.3631 49.0524 70.8161 49.0524Z" fill="#50CAE3"/>
<path d="M28.6145 49.0524C27.0675 49.0524 25.8135 50.3064 25.8135 51.8534V57.4555C25.8135 59.0023 27.0675 60.2565 28.6145 60.2565C30.1615 60.2565 31.4155 59.0023 31.4155 57.4555V51.8534C31.4155 50.3064 30.1615 49.0524 28.6145 49.0524Z" fill="#50CAE3"/>
<path d="M30.0148 43.4504C29.2407 43.4504 28.6143 44.0768 28.6143 44.8509V46.2514C31.7039 46.2514 34.2163 48.7638 34.2163 51.8534V57.4554C34.2163 60.545 31.7039 63.0574 28.6143 63.0574V64.4579C28.6143 65.232 29.2407 65.8584 30.0148 65.8584C37.1948 65.8584 42.9358 68.126 48.3147 71.5538V47.9874C42.9115 44.8895 37.1016 43.4504 30.0148 43.4504Z" fill="#1797C5"/>
<path d="M70.8162 46.2514V44.8509C70.8162 44.0768 70.1898 43.4504 69.4157 43.4504C62.3288 43.4504 56.5189 44.8895 51.1157 47.9874V71.5538C56.4946 68.126 62.2356 65.8584 69.4157 65.8584C70.1898 65.8584 70.8162 65.232 70.8162 64.4579V63.0574C67.7266 63.0574 65.2141 60.545 65.2141 57.4554V51.8534C65.2141 48.7638 67.7266 46.2514 70.8162 46.2514Z" fill="#1178B4"/>
</svg>
