<svg width="68" height="68" viewBox="0 0 68 68" fill="none" xmlns="http://www.w3.org/2000/svg">
<rect width="68" height="68" rx="4"/>
<path d="M31.3 18.7C27.2422 18.7 23.3506 20.4015 20.4813 23.4302C17.612 26.4589 16 30.5667 16 34.85C16 39.1332 17.612 43.2411 20.4813 46.2698C23.3506 49.2985 27.2422 51 31.3 51L31.3 34.85V18.7Z" fill="#FFEBEE"/>
<path d="M46.8501 23C47.4024 23 47.8544 22.5515 47.8088 22.0011C47.7174 20.899 47.4752 19.8164 47.0889 18.7905C46.5863 17.4559 45.8498 16.2433 44.9212 15.2218C43.9926 14.2004 42.8902 13.3901 41.6769 12.8373C40.7722 12.4251 39.819 12.162 38.8481 12.0549C38.2991 11.9943 37.8501 12.4477 37.8501 13V22C37.8501 22.5523 38.2978 23 38.8501 23H46.8501Z" fill="#F89B1C"/>
<path fill-rule="evenodd" clip-rule="evenodd" d="M41.6501 24.65C42.0941 24.65 42.5001 25.2371 42.5001 25.7137V43.2977C42.5001 45.2044 41.0604 46.75 39.2845 46.75H25.3157C23.5398 46.75 22.1001 45.2044 22.1001 43.2977V20.4523C22.1001 18.5456 23.5398 17 25.3157 17H34.7748C35.2188 17 35.5787 17.3864 35.5787 17.8631V23.9876C35.5787 24.4643 36.1061 24.65 36.5501 24.65H41.6501Z" fill="#D23258"/>
<rect x="23.7998" y="23.8" width="10" height="1.6" rx="0.8" fill="white"/>
<rect x="23.7998" y="27.2" width="12" height="1.6" rx="0.8" fill="white"/>
<rect x="23.7998" y="30.6" width="15.5" height="1.6" rx="0.8" fill="white"/>
<rect x="23.7998" y="34" width="15.5" height="1.6" rx="0.8" fill="white"/>
<rect x="23.7998" y="37.4" width="14" height="1.6" rx="0.8" fill="white"/>
<path d="M38.25 24.65H43.9C45.0046 24.65 45.9 25.5454 45.9 26.65V46.45C45.9 47.5546 45.0046 48.45 43.9 48.45H40.25C39.1454 48.45 38.25 47.5546 38.25 46.45V24.65Z" fill="#AD193C"/>
<rect x="18.7002" y="41.65" width="31.45" height="10.2" rx="2.16507" fill="#F89B1C"/>
<rect x="22.9502" y="44.965" width="17" height="3.4" rx="1.7" fill="white"/>
</svg>
